<svg xmlns="http://www.w3.org/2000/svg" width="125.69" height="156.76" viewBox="0 0 125.69 156.76"><defs><style>.a{fill:#b42537;}</style></defs><path class="a" d="M124.29,145.41c-1.62-1-2.81-.29-3.81,1a12.92,12.92,0,0,1-1,1.44c-1.77,1.66-3.53,1.36-5-.33s-.47-2.67,1.13-3.77c3.7-2.57,5-6.17,3.49-10.53s-4.75-6.26-9.29-6c-2.58.16-4.63-.63-4.83-3.37-.18-2.58,1.63-3.2,4.07-3.53,6.4-.88,9.92-4.71,9.81-10.07s-3.34-8.51-9.8-9.42c-2.95-.41-4.47-1.72-3.48-4.75.69-2.06,2.68-2,4.47-2.17,5.32-.63,8.81-4.35,8.93-9.38s-3.25-8.94-8.49-9.83c-1.26-.22-2.53-.41-3.79-.61,4.49-1.59,5.25-6.1,8-8.63,3.21-3,4.37-6.41,3.17-10.43S113.32,49,109,48.74c-2.4-.12-4.51-.86-4.74-3.68-.26-3.07,1.85-4,4.38-4.59,6.41-1.52,9.36-6.42,7.45-12.21-1.77-5.4-7.38-7.64-13.06-5-1.88.87-3.45,1-4.79-.54s-1.32-3.55.31-5.16A6.13,6.13,0,0,0,100.23,14C101,8.66,98,4.32,92.64,3.19c-4.65-1-9,1.77-10.4,6.8-.61,2.25-1.46,4-4,3.9-2.89-.12-3.52-2.3-3.79-4.66,0-.44,0-.9,0-1.34A8.78,8.78,0,0,0,66.06,0c-4.81-.37-8.56,2.08-9.81,6.57A33.29,33.29,0,0,0,55.57,11a3.28,3.28,0,0,1-3.36,2.95,3.33,3.33,0,0,1-3.83-2.34c-.37-1.13-.49-2.34-.87-3.46a9,9,0,0,0-11.8-5.76A8.83,8.83,0,0,0,30,13.82c.91,2.42,1.83,4.4-.85,6.15-2.38,1.56-3.61-.17-5.31-1.5-2.88-2.24-6.23-1.88-9.24-.11A9,9,0,0,0,10,27.8a8.48,8.48,0,0,0,6.3,7.35c1.34.4,2.74.37,3.45-1.14a2.69,2.69,0,0,0-1.12-3.83A11.16,11.16,0,0,1,16.78,29a3.21,3.21,0,0,1-.38-4.76c1.24-1.6,2.56-2,4.54-.62,4.9,3.31,8.74,3.41,12.22.49C36.93,21,37.71,17,35.63,12.51c-1.18-2.51-.15-4.09,2.14-4.86s3.75.32,4.4,2.54A34.8,34.8,0,0,0,43,13.64a9.08,9.08,0,0,0,9,6.06,8.77,8.77,0,0,0,8.75-6.36,17,17,0,0,0,.51-3.52c.27-2.51,1.34-4.39,4.15-4.2C68,5.8,68.74,7.54,69,10c.56,5.88,3.66,9.22,8.58,9.67s8-1.93,10.07-8c.54-1.6,1.4-2.63,3-2.83a3.79,3.79,0,0,1,3.48,1.6c1.18,1.47.61,2.76-.34,4A10.64,10.64,0,0,0,93,15.5c-2.17,3.78-1.85,8.12,1,11.09s6.63,4.07,10.57,2.15c2.71-1.33,5.11-1.67,6.1,1.58s-1.17,4.26-4.11,4.92c-7.55,1.7-10.49,9.54-6,15.44,2.08,2.75,5.07,3.46,8.24,3.76,3,.28,4.09,1.89,3.59,4.85-4-2.33-3.82-2.21-6.66,2.09-.86,1.3-2.61,3.31-5,.88-5.38-5.4-15.56-1.77-15.34,6.14.06,2.46-.84,4.64-3.72,4.51s-3.45-2.29-3.7-4.73c-.61-5.75-4-9.06-9-9C64.1,59.27,60.52,62.64,60,68c-.21,2.24-.35,4.32-3.16,4.44-2.54.11-2.91-1.82-3.42-3.83C52,63,47.52,60.05,42.53,61.15c-5.16,1.13-8.12,5.51-7.2,11.06.32,1.93.61,3.69-1.45,4.55-2.23.94-3.34-.45-4.56-2.28-3.18-4.75-9-5.62-13.19-2.28s-4.58,8.93-.54,13.28c1.4,1.5,2.21,2.94,1.11,4.7s-2.78,1.94-5,1.16c-5.39-1.89-10.29.85-11.47,6a8.61,8.61,0,0,0,7.11,10.55c2.09.4,4.35.25,4.67,3.06.34,3-1.83,3.54-4.07,4.31a8.4,8.4,0,0,0-5.06,11.88A8.54,8.54,0,0,0,15,130.87c2-1.19,3.66-2,5.53-.13s1,3.57-.32,5.49c-3,4.45-1.75,9.9,2.54,12.41,4.63,2.71,9.77,1.13,12.29-4,1-2.13,2-4.15,4.84-3.49,3.06.71,3.05,3.07,3,5.61-.12,5.9,3.1,9.56,8.47,10,5.19.37,9.06-3,9.93-8.7.25-1.63.08-3.48,2.35-3.64s2.38,1.66,3,3.21c2.15,5.78,7.06,8.12,12.41,6.06,4.65-1.8,6.44-5.92,5.13-12.15-.4-1.89-.57-3.67,1.45-4.61a3.35,3.35,0,0,1,4,.82c7.3,6.87,12.58,5.91,16.44-3.2,1.12-2.66,3-1.24,4.46-1.54s2.83.64,3.22,2.37,0,3.41-1.89,3.95c-4.11,1.22-3.87,4.47-3.63,7.57a8.57,8.57,0,0,0,7.6,7.6,8.69,8.69,0,0,0,9.28-4.76C125.88,148.28,126.14,146.56,124.29,145.41Zm-25.52-30a9,9,0,0,0-.6,14.52c2,1.73,3.26,3.36,1.13,5.46s-3.79.66-5.43-1.28A8.56,8.56,0,0,0,82.67,132c-3.84,2.05-5.34,5.79-4.1,10.61.68,2.67,1.06,5.22-2.47,5.94-2.9.58-3.73-1.54-4.49-3.82-1.45-4.39-4.59-6.57-8.64-6-4.23.53-6.75,3.08-7.23,7.25-.32,2.71-.51,5.34-4.05,5.09s-3.51-3-3.24-5.86c0-4.8-2.4-8.18-6.94-9.39s-8.82.6-11,5.22c-1.07,2.27-2.18,4.26-4.9,2.6s-1.08-3.4.1-5.26a9,9,0,0,0-1-11.45c-2.86-3.06-7-3.77-11-1.9a6,6,0,0,0-.79.42c-1.88,1.24-3.75,1.48-4.81-.87s.24-3.37,2.45-4.17c5.43-2,7.68-5.21,7.23-9.81s-3-7.06-8.55-8.16c-2.13-.43-4-1.14-3.46-3.59.59-2.69,2.59-2.69,4.92-1.86,4.29,1.51,8,.4,10.62-3.31,2.55-3.56,2.1-7.89-1.34-11.76-1.73-2-2-3.58.13-5.17s3.46-.52,4.78,1.33c3.18,4.44,6.81,5.74,11,4.13,3.93-1.5,5.84-5,5.15-10.2-.33-2.54-.19-4.57,2.68-5.14s3.75,1.49,4.39,3.83c1.54,5.59,4.32,7.66,9.51,7.28,4.66-.33,7.17-3,7.83-8.57.27-2.24.82-4.27,3.48-4.35,3-.08,3.4,2,3.62,4.49.49,5.6,4,9,9,9.16s8.61-3.2,9.38-8.82c.3-2.18.37-4.32,3.18-4.49,2.48-.16,3,1.59,3.63,3.64,1.84,6.22,4.4,11.77,12.46,11.51,1.83,0,2.69,1.7,2.84,3.47a3.72,3.72,0,0,1-2.6,4.19,25.13,25.13,0,0,1-3.51.45c-6.83,1.23-10,9.13-5.55,14.41a30.88,30.88,0,0,0,6.94,5.88c1.51,1,2.91,1.64,2.41,3.62-.62,2.45-2.68,2.16-4.36,1.69A8.7,8.7,0,0,0,98.77,115.37Z"/></svg>