<svg xmlns="http://www.w3.org/2000/svg" width="125.69" height="153.59" viewBox="0 0 125.69 153.59"><defs><style>.a{fill:#b42537;}</style></defs><path class="a" d="M124.52,144.07c-1.72-1.36-3.3-.86-4.43,1.08-.91,1.56-2.28,1.28-3.45.49-1.67-1.13-.12-1.93.44-2.86,3.51-5.88.08-12.55-6.68-12.91-1.49-.08-3.19.41-3.41-1.76-.23-2.38,1.62-2.36,3.27-2.67,2.9-.53,5.11-2.3,5.52-5.16.77-5.3-.47-10.52-2-15.54-.47-1.51-1.34-2.1,0-3.83,4-5.13,1.9-11.15-4.38-12.74-1.71-.43-2.78-.9-2.81-2.72s.94-2.62,3-3c6.31-1.33,9.14-8.89,4.75-13.44-3.71-3.84-1.85-7.56-.21-10.59,3.64-6.74,2.16-12-5.12-14.08-1.77-.49-2.68-1.37-2.73-2.94s.89-2.2,2.4-2.72c5-1.73,6.92-4.92,5.9-9.38s-4-6.5-9.36-5.87c-1.66.2-2.89.12-3.75-1.49-.73-1.38-.39-2.28.57-3.53,3.1-4,2.4-8.39-1.53-11.21S92,4.93,89.23,9c-.94,1.4-1.65,2.46-3.46,1.91-1.45-.44-2-1.43-2.18-3C82.77,2.47,80.67.44,76.09.24S69,1.8,67.6,6.92c-.42,1.53-1,2.45-2.52,2.54-1.86.1-2.72-1.07-2.89-2.72a6.84,6.84,0,0,0-3.47-5.42A8.19,8.19,0,0,0,46.13,7.05c-.34,1.83-.7,3.18-2.76,3.37a2.65,2.65,0,0,1-2.83-1.61C37.7,3.67,34.23,2.23,29.82,4.12c-4,1.72-5.36,5.07-3.92,10.43.36,1.31.44,2.35-.56,3.22s-2,.72-3.28.28c-6.24-2.14-11.15,1.3-11.25,8.26-.18,2.4,1.07,4.64,3.5,6.23,1.59,1,3.38,1.65,4.82-.06s.69-3.39-1.13-4.38S16.14,26,16.91,24.41c1-2,2.26-1.28,3.68-.66,3.43,1.51,6.47.56,9-1.92s3.59-5.57,1.88-8.94c-.87-1.72-.7-2.83,1-3.53s2.29.13,2.91,1.7c1.56,4,4.79,5.67,8.93,5.11s7.11-3,7.38-7.58c.1-1.78.79-2.89,2.67-2.8,1.58.08,2.16,1,2.38,2.63.63,4.53,3.58,6.67,8,6.86s6.91-1.89,8.35-6.91c.4-1.39.77-2.68,2.5-2.57s2.56,1.06,2.47,3c-.19,4,2.1,6.43,5.7,7.54s7.14.46,9.53-2.92c1-1.43,1.82-2.92,3.81-1.47,1.82,1.34.66,2.51-.27,3.72-2.4,3.13-2.17,6.46-.22,9.6,2.07,3.31,5.14,4.87,9.14,3.87,1.43-.36,2.61-.52,3.08,1.37.5,2.07-.6,2.62-2.32,2.88a6.56,6.56,0,0,0-4.08,2.54,8.63,8.63,0,0,0,4.5,13.84c1.54.4,3.41.18,3.49,2.58.1,2.69-1.93,2.44-3.63,2.86s-3.34,1-4.09,2.5c-1.12,2.27-2.24,2.56-4.78,1.82A8.16,8.16,0,0,0,87.29,65.7c-.38,2-.26,4-3.05,3.92s-2.44-2.32-2.85-4.14c-.9-4.07-4.09-6.5-8.42-6.62a8.09,8.09,0,0,0-8.51,6.4C64,67,64,68.93,61.58,69.12c-2.71.21-2.88-1.71-3.46-3.67-1.21-4.09-4.68-6.13-9-5.66-4.64.51-7.52,3.23-7.8,7.69-.12,1.84.11,3.65-2.2,4.27s-2.58-1.28-3.47-2.6c-2.56-3.79-6.85-4.76-11.06-2.65a8.14,8.14,0,0,0-4.42,10.09c.58,1.71,1.68,3.24-.05,4.83s-3.19.1-4.77-.59c-4.2-1.85-8.63,0-10.78,4.33s-1,8.71,2.66,11c1.29.81,3.29.86,2.89,3.27s-2.5,2.17-4.12,2.63c-4.38,1.23-6.51,4.67-5.9,9.61.53,4.26,3.48,7,7.8,7,1.84,0,3.48-.33,4.41,1.9s-1,2.77-2,3.84c-3.2,3.2-3.24,8.08-.11,11.69s8.08,4.39,11.57,1.54c1.5-1.22,2.7-2.41,4.62-1.13,1.67,1.12,1.3,2.61,1,4.34-.84,4.47,1.38,8,5.62,9.35,4.43,1.46,8.39-.16,10.4-4.42.65-1.36.88-2.89,3-2.55,1.93.31,2.14,1.63,2.32,3.24.45,3.88,2.76,6.11,6.57,6.82,5.67,1.06,9.53-1.66,10.38-7.44.26-1.75.57-3.26,2.67-3.49a2.85,2.85,0,0,1,3.18,1.72c3,5.31,6.14,6.73,10.79,5.2s6.44-4.82,5.49-10.64c-.25-1.51-.23-2.56,1.06-3.42s2.48-.47,3.57.54c3.38,3.13,7.13,3.13,10.55.46,2.75-2.15,5.42-.24,8.08-.42,1.33-.09,2.72,1.92.9,4-3,3.49-2.4,7.71,1.16,10.37s8.86,2.21,11.28-1.09C125.48,147.6,126.61,145.72,124.52,144.07ZM99.33,126.88c1.42,1.44,2,2.68.71,4.17-1.42,1.68-2.92,1.44-4.54-.12-3-2.92-6.6-2.55-9.88-.57s-4.83,5.38-3.61,9.24c.69,2.17.28,3.49-1.64,4.33-2.31,1-3.13-.6-3.92-2.38-1.86-4.21-5.3-5.37-9.56-4.59s-6.72,3.12-6.77,7.53c0,2.18-.82,3.47-3.08,3.45s-2.87-1.48-3-3.57c-.27-4.3-3.13-6.24-7-6.77s-6.72.9-8.34,4.51c-.72,1.61-1,3.6-3.64,2.65-2.27-.81-2.22-2.14-1.76-4.18.89-3.91-.61-7-4.08-9.07s-6.88-2.08-9.91.67c-1.59,1.44-2.93,2.06-4.54.32s-1.2-3.29.72-4.8c3.1-2.44,3.49-5.83,2.19-9.29-1.38-3.7-4.1-5.79-8.27-5.43-2,.18-3.66-.19-3.77-2.62s1.46-2.74,3.5-3c3.91-.44,6-3,6.59-6.78s-.43-6.88-3.95-8.66c-1.75-.89-3.26-1.38-2.08-3.86,1.34-2.81,2.91-2,5-1,5.62,2.7,12.38-1.66,12.37-8.54a13.17,13.17,0,0,0-.93-2.67c-1.07-2-.73-3.22,1.36-4.26s2.85.06,3.84,1.6c2.78,4.33,6.68,5.48,11.07,3.4,3.14-1.48,4.75-3.9,4.48-7.48-.15-2,.67-3.5,2.91-3.71,2.06-.18,2.82,1,3.19,2.88.91,4.54,4,6.34,8.41,6.32s7.39-2.19,8.33-6.56c.41-1.88.58-3.53,3.06-3.5,2.69,0,2.87,1.83,3.23,3.9.75,4.39,4.11,7,8.54,6.87s7.11-2.32,8-6.83c.36-1.76.87-3.15,2.76-3.57,2.25-.51,2.51,1.24,3.34,2.7,1.87,3.27,5.66,2.9,8.68,3.9,1.5.5,3,.62,3.07,2.53.11,2.14-1.34,2.66-3.12,3-4.58.84-6.58,4-6.54,8.31,0,4,1.8,7.18,6.2,8.12,1.28.27,2.84.37,2.88,2.19s-1.31,1.86-2.7,2.23c-5.36,1.4-7.76,5.8-6.05,11.39.55,1.84.42,2.63-1.12,3.94C95.41,117.12,95.18,122.67,99.33,126.88Zm10.11-18.17a.8.8,0,0,1-.45.64c-1.67.23-2.32-.89-2.93-2.57C107.91,106.84,109.16,107.06,109.44,108.71Zm-6.83,13.48c-.17-4.27,3.37-6.59,7.11-4.77a1.28,1.28,0,0,1,.67.9,1.57,1.57,0,0,1-1.65,1.7C106.38,119.87,104.69,121.51,102.61,122.19Z"/></svg>