<svg xmlns="http://www.w3.org/2000/svg" width="127.71" height="162.31" viewBox="0 0 127.71 162.31"><defs><style>.a{fill:#b42537;}</style></defs><path class="a" d="M54.84,162.31,44.16,141.55,25.57,154.11V131.27l-23-1.15L17.71,113,0,98.51l22.21-5.38c-1.38-7.4-2.73-14.61-4.27-22.85L38,80.1l7.8-20.48L60.61,75.38,72.7,58.06l12,17.58L95.81,59.71c1.77,1,3.39,1.87,5,2.79,7.2,4.13,7.2,4.14,14.16-1.68-5.84-4.13-11.55-8.18-17.56-12.45L112,34.78,94.59,32V14.63L80.73,27,68.72,9.6c-4.24,6-8.22,11.62-12.51,17.7C51.73,22.54,47.5,18,42.62,12.83,41.45,18.31,40.33,23,39.48,27.75c-.38,2.14-1.18,2.88-3.43,2.77-6-.29-11.94-.1-17.88-.55-1.75-.14-4.68-1.62-4.81-2.74C13,24,15.87,24.52,18,24.59c4.36.15,8.73.19,13.08.47,2.46.15,3.57-.56,4-3.2,1.14-6.69,2.67-13.32,4.21-20.72L55.57,18.52,68.75,0l13,18.66,17.68-16V27.19L124.15,31l-18,16.82,18.52,13-10.36,7.64.64,6.05h-6.55l16.92,12.1-17.68,13,17.91,12.82L107.7,124.94l16.5,9.42c-1.15,4.24-2.31,8.5-3.47,12.75a3.33,3.33,0,0,0,.85.32c1.94,0,5.06-.7,5.6.16,1.77,2.9-1.25,3.83-3.19,4.94-3.85,2.19-7.74,4.32-12.46,6.94,2.24-8,4.2-15.1,6.25-22.44l-12.52-7c1.63,5.27,3,9.57,4.51,14.53l-21.62-7.11-5.66,22L67,145.1ZM41.05,87.69,25.42,80.16c1.14,6.14,2.13,11.49,3.17,17.07L12.2,101.29l13.49,11.06L14.44,125.16l16.81.94v17.39l15-10c3.18,6.19,6.13,11.94,9.33,18.15,3.65-5.17,7-9.89,10.54-14.93L79.44,149l4.87-18.55,16.82,5.39-5.44-16.74,16.52-5.46c-2-2.82-3.59-5.72-5.83-8s-5.21-3.91-8.17-6L115.9,86.72l-18.15-13,4.64-3.92L97.45,67,84.57,85.4,72.66,67.91,61.24,84.18,47.81,69.92C45.45,76.14,43.31,81.76,41.05,87.69Z"/></svg>