<svg xmlns="http://www.w3.org/2000/svg" width="125.69" height="156.55" viewBox="0 0 125.69 156.55"><defs><style>.a{fill:#b42537;}</style></defs><path class="a" d="M0,111.8l14.4-11.58-10-16.41H23.89C24.79,77,25.6,71,26.47,64.46l15.74,9L51.11,58l12.5,12.85L75.4,57.35,85.94,70.79l9.89-12.35c7.2,6.16,10.77-.16,15.58-4.17L99,43.85c3.32-3.51,6.47-6.83,10-10.55L96.12,29c.38-4.17.76-8.32,1.2-13.1L85.56,21.58,77.3,9.24,67.22,21,56.77,8.94,47.52,21.53,36,13.21c-.74,4.62-1.39,8.72-2.08,13.06C28,27.08,22.29,28,16.53,28.53c-1,.1-2.22-1.25-3.34-1.93.89-1.11,1.6-2.92,2.7-3.2a55.52,55.52,0,0,1,9.48-1.35c2.93-.23,4.26-1.44,4.48-4.54.33-4.47,1.21-8.9,2-14.27L46.23,13.77,56.47,0,67.14,12.48c3.66-4.24,7-8.14,10.8-12.48l9.5,14.46L104.12,6.3c-.65,5.39-1.09,10.15-1.85,14.86-.48,3,.34,4.52,3.36,5.31,4.34,1.12,8.58,2.65,14.45,4.52L105.82,42.34l14.33,11.95-10.89,9.22,10.51,12.4L107.6,86.36l11.89,10-7.62,6.72,7.31,8.43-3.73,2.33,5.09,3.45-11.46,9.81a7.83,7.83,0,0,0,1.36,1c7.23,2.78,12.76,6.57,8.54,16.31,1.81-.66,2.6-1.21,3.36-1.16,1.15.07,3.13.37,3.26.91.25,1.15,0,3.12-.85,3.69-3.28,2.31-6.84,4.21-11,6.68.24-4.28.53-7.69.61-11.11.18-8.19,1.72-6.14-6.64-10.26.22,1.41.41,2.63.67,4.28l-18.22-3.15c-1.53,5.84-3,11.54-4.68,17.83L70.15,141.52l-10.57,15-10.5-14.12L35.14,153.21c-1.85-6.06-3.57-11.72-5.41-17.74l-19.16,3.17,6-18.21C11.26,117.65,5.9,114.87,0,111.8Zm97.79-47L86,79.84,75.14,66.13,63.76,79.18,52.49,66.9c-3,5.15-5.57,9.58-8.23,14.14L30.88,73.42c-.76,5.41-1.45,10.24-2.13,15.09l-14.51.68,7.41,12.27L10.24,110.8l13.06,6.87-4.54,13.92,14.9-2.26L38.1,143.9l12-9.29c3.22,4.24,6.16,8.13,9.39,12.41l9.22-13.28L82.12,143c1.42-5.38,2.66-10.11,3.94-15l14.4,2.45c-1.41-5.15-2.71-9.89-4-14.59l8.16-3.93-5.79-5.25,12.1-10.26L99,86.38l12.83-11.06Zm6.71,59,6.88-5.93-.65-1.48-7.78,2.4Z"/></svg>