<svg xmlns="http://www.w3.org/2000/svg" width="125.69" height="158.18" viewBox="0 0 125.69 158.18"><defs><style>.a{fill:#b42537;}</style></defs><path class="a" d="M123.08,132.5c-3.78-4.08-10.2-4.22-15,.2-2.37,2.17-4.38,2.27-6.86.84-1.88-1.07-3.21-2.72-2.75-4.88.64-3,2.94-4.4,5.92-4.74,2.13-.25,4.28-.39,6.38-.8,6.48-1.3,10.87-6.26,10.49-11.71s-5.25-10-11.7-10.63c-2-.2-4-.26-6-.59-3.24-.54-6-2.22-6-5.68.06-3.72,3.13-5.18,6.48-5.7,2.68-.41,5.45-.39,8.08-1a11.78,11.78,0,0,0,9.2-9.66,10.44,10.44,0,0,0-6.08-10.87c-2.7-1.27-4.87-2.66-6.1-5.47A2.78,2.78,0,0,0,106,60.14a2.3,2.3,0,0,0-2.14,2.72c.49,2.9-1.27,1.94-2.45,1.47C99,63.39,97.12,61.79,97,59s1.64-4.39,4-5.53c2.8-1.35,5.92-.78,8.83-1.58,4.76-1.31,8.47-3.86,9.62-8.79a9.26,9.26,0,0,0-4.17-10.49c-4.28-2.69-8.84-3.76-13.69-1-3.11,1.81-6.51,2.78-9.36-.44-2.09-2.36-1.32-6.11,2.18-9C98.76,18.56,98.08,14,97,9.6a9.57,9.57,0,0,0-8.53-7.46c-4.77-.6-8.26,1.75-10.89,5.5a17.88,17.88,0,0,0-2.86,8.85c-.32,3.3-2,6.45-5.66,6.57-4,.14-5.47-3.09-6.16-6.54-.22-1.11-.11-2.28-.23-3.42a17.65,17.65,0,0,0-2.15-7.35C58.21,1.86,55-.27,50.29,0c-4.4.27-7.11,2.77-8.88,6.46a15.23,15.23,0,0,0-.82,10.89c1,3.49.8,7-2.88,8.43-4,1.6-6.45-1.27-8-4.59-2.27-4.84-6.63-4.84-10.91-4.85a9.62,9.62,0,0,0-9.42,6.22c-2.86,6.56,2.26,13.66,8.42,16.1,1.44.57,2.47-.2,3.16-1.48s.11-2.51-.93-3.36c-1.32-1.09-3-1.85-4.08-3.09-1.56-1.71-2.67-3.73-1.43-6.23s3.6-3,6.16-2.85c2.36.13,3.72,1.39,4.95,3.43,3.55,5.9,9.32,8,14.53,5.77C45,28.76,47.41,23,46,16.63a12.67,12.67,0,0,1-.3-5.95c.7-2.75,2-5.18,5.33-5.29,3.11-.11,4.69,2.06,5.46,4.62a44.39,44.39,0,0,1,1,6.77c1,7,5.63,11.84,11.44,11.79s10.39-4.87,11.19-12A11.44,11.44,0,0,1,83.32,9.3a5,5,0,0,1,5.06-1.55,5.1,5.1,0,0,1,3.69,4.3,7.09,7.09,0,0,1-2.41,7.23,11.61,11.61,0,0,0-3.22,12.6C87.72,36,91,38,95.1,38.63c3.58.54,6.69-.93,9.8-2.5s8,.14,9,3.27c1.26,3.78-1.22,5.68-4.2,6.76-2.11.77-4.48.8-6.73,1.19-5.64,1-10,3.52-11.25,9.59-.31,1.45-.6,2.28-2.64,2.27-5.47,0-8.95,3.2-10,8.69-.42,2.25-.4,4.6-1,6.77s-2,4-4.61,3.71c-2.29-.24-3.46-1.94-3.82-4.06-.4-2.39-.42-4.85-.9-7.22-1-4.91-4.49-8.22-8.88-8.68a9.44,9.44,0,0,0-9.67,5.69A14.91,14.91,0,0,0,49,71.65c0,.43.07.85.09,1.28.16,2.82.17,5.91-3.27,6.55s-4.6-2.21-5.41-4.92a14.1,14.1,0,0,0-3.27-6c-3-3.11-6.43-4.78-10.79-3.13-4,1.51-6,5.09-5.82,10a13.26,13.26,0,0,0,3.35,8.14,4.94,4.94,0,0,1,.63,6A3.37,3.37,0,0,1,20.33,91a16.47,16.47,0,0,1-3.74-2c-3.68-2.56-9-2.89-12.5-.56A8.24,8.24,0,0,0,.16,97.28c.71,4.07,4.82,7.93,9.24,8.51,3.41.45,7.7,0,7.75,4.74,0,4.3-4.07,4.3-7.31,5-5.71,1.18-9.67,7.65-8.27,13.14,1.24,4.87,6.63,7.48,12.47,6.23,2.66-.58,4.57-2.14,6.54-3.85a4.17,4.17,0,0,1,5.53-.39c1.89,1.47,1.67,3.48.63,5.43-.4.76-.89,1.47-1.3,2.21a12.46,12.46,0,0,0,0,13c1.94,3.33,5.18,4.47,8.85,4.05,5-.57,7.71-4,9.48-8.33.7-1.7.89-3.62,1.58-5.32s2.19-3.23,4.29-3a4.29,4.29,0,0,1,3.68,3.71c.32,1.82.33,3.7.55,5.54.74,6.22,5.57,10.77,10.67,10.1,5.63-.73,9.45-6.61,8.28-13a16.7,16.7,0,0,1-.56-5.07,4.21,4.21,0,0,1,2.62-3.64c1.74-.72,3.14.18,4.17,1.41a31.32,31.32,0,0,1,2.45,4c2.51,4.2,6,7.11,11.07,6.87a8.29,8.29,0,0,0,8.32-7.31c.35-1.95,1.38-1.57,2.75-1.35,2.56.42,4.94.53,6.84-2.09s4.81-4.3,7.84-2.23c3.34,2.28,2.06,5.5.47,8.42-.27.5-.64,1-.86,1.47-.65,1.48-.53,2.83.94,3.74s2.69.13,3.72-1C126.51,143.93,126.75,136.46,123.08,132.5ZM105.75,70.8c-2.78,2.81-4.22,2.55-7.31-1.49Zm-16,48.77c-2.91,4.25-1.76,9,3.52,14.33a6.9,6.9,0,0,1,2.27,4c.23,1.77.25,3.51-1.42,4.65s-3.54.69-5.19-.43c-2-1.36-2.81-3.5-3.93-5.5-2.5-4.49-7.23-6.67-11.5-5.54-4.11,1.08-6.9,5.3-6.81,11.3,0,1.42,1.13,3.72.58,6.21-.42,1.93-1,3.64-3.28,3.92s-3.41-1.28-4.16-3a12.73,12.73,0,0,1-.62-3.34c-.16-1.27-.13-2.58-.38-3.83-1.09-5.42-4.39-8.69-8.93-8.95-4.74-.28-8.74,2.77-10.35,8-.67,2.17-.85,4.5-2.39,6.35-1.39,1.67-3,2.75-5.23,2.09s-2.8-2.66-2.84-4.77a8.15,8.15,0,0,1,1.28-4.45c3.45-5.8,3.21-10.72-.54-14s-9-2.79-14,1.26a9.55,9.55,0,0,1-1,.86c-2.09,1.2-4.27,1.68-6.52.45a3.2,3.2,0,0,1-1.6-3.66C7.2,123.1,9,121.78,11,120.94c1.42-.6,3.08-.61,4.55-1.13,4.83-1.7,7.57-5.55,7.26-10s-3.88-8.17-8.91-9.09a24.9,24.9,0,0,1-4.63-.83c-2.36-.93-4.7-2.46-3.31-5.41s4-2.85,6.59-1.6a18.68,18.68,0,0,1,2.12,1.47c4.74,3.07,10.08,2.87,13.43-.49s3.47-8.61.39-13.43a17.9,17.9,0,0,1-2.34-4c-.69-2.16-.42-4.41,1.81-5.63s4.06.18,5.53,1.9c1.15,1.35,1.44,3.07,2,4.68,2,5.45,6.88,8.64,11.48,7.62,5-1.11,8.09-5.82,7.55-11.87A12.69,12.69,0,0,1,55,66.81c.72-1.68,1.81-3,3.77-3s3.15,1.14,4,2.75a11,11,0,0,1,1,4.56,25,25,0,0,0,.59,4.65c1.27,5.11,4.61,7.94,9.24,8S82,81,83.38,76.18c.61-2.18.58-4.52,1-6.76s1.27-4.67,4.08-4.8c3.09-.14,4.33,2.28,4.42,4.8.14,3.94,2.62,5.88,5.55,7.46,4.62,2.5,9.82,1.3,12.27-3.27,1.47-2.75,2.37-1.61,3.64-.32,2.37,2.43,2.09,5.61-.61,7.8a11,11,0,0,1-6,2,52.06,52.06,0,0,0-6.39.73c-5.44,1.3-9.1,5.59-9.22,10.48s3.1,8.8,8.32,10.79c4,1.51,6.6,5.05,10.25,7.19,2.13,1.24,1.37,3.8-1.14,5a6.65,6.65,0,0,1-5.76,0C97.28,114.78,92.52,115.59,89.79,119.57Z"/></svg>