<svg xmlns="http://www.w3.org/2000/svg" width="134.05" height="171.14" viewBox="0 0 134.05 171.14"><defs><style>.a{fill:#b42537;}</style></defs><path class="a" d="M105.43,101.51l27.88,17.42c-3.74,2.33-5.26,6.31-10.08,7.59-4.64,1.23-8.58,5-13.84,8.37l22.86,2c-.49,6-.81,11.67-1.53,17.25-.15,1.13-1.81,2.07-2.77,3.1-.84-1.27-2.38-2.52-2.4-3.8-.07-3.74.47-7.49.8-11.67l-22.5-1.71c1.54,6.58,2.92,12.46,4.6,19.65l-26.24-16c-3.29,9-6.48,17.81-10,27.41L56.63,146.23l-22,20.87c-.51-9.54-1-19.32-1.57-29.57l-30.2,2.69-.76-1,23.15-21L0,97.64H30.55V67.38L52.64,86.32,65.19,59.89,80.65,84.62c3.57-5.4,6.76-10.37,10.11-15.23,2-2.85,3.78-5.27,7.46-7.09,7.45-3.66,13.94-9.25,21.77-14.7L92.82,42.31c.38-8.19.75-16.2,1.18-25.51L75.73,38.49,58.33,12.08c-3.6,9.5-7,18.4-10.5,27.71L20.47,32c-1.12-.32-2.46-.35-3.31-1a26.12,26.12,0,0,1-3.29-3.72c1.56-.51,3.31-1.74,4.66-1.4,7.6,1.91,15.11,4.2,22.65,6.35,1,.27,1.94.5,3.29.85C48.56,22.29,52.59,11.62,57,0L76.26,29.25l23-27.41,1,.23c-.57,11.76-1.15,23.51-1.75,35.75l35.43,6.84c-10.16,7.08-19.52,13.58-29.36,20.43l29.5,18.43ZM39.51,155.58l18-18.24c4.46,7.07,8.7,13.8,13.37,21.19l8.43-23,20,12.09c-.9-3.72.61-8.6-5.57-8.73,6.28-4.33-.23-9.09,1.51-13.54l20.79-3.82c-2.5-10-11-13.67-18.49-18.41-.69-.44-1.31-1-2.29-1.73l28.35-17.87-4.87-3c-1.2,4.68-2.55,5.23-6,2.59-5.35-4.15-10.62-8.39-16.12-12.74C91.22,78.68,86,86.57,80.51,94.87c-5.08-8.13-9.71-15.53-14.65-23.45-4,8.47-7.64,16-11.38,23.8l-18-15.45v23.44H15.63l17.83,14.61L16.92,132.49l.69.91,20.61-1.83C38.64,139.47,39.05,147,39.51,155.58Z"/></svg>