<svg xmlns="http://www.w3.org/2000/svg" width="878.76" height="853.01" viewBox="0 0 878.76 853.01"><defs><style>.a{fill:#1d1d1d;}</style></defs><path class="a" d="M125.39,852.55c5.37,1.63,9.35-1.35,13.35-3.91C133,847.65,128.78,848.74,125.39,852.55Z"/><path class="a" d="M138.88,848.65s0-.07,0-.09a1.09,1.09,0,0,1-.15.08Z"/><path class="a" d="M666,77.11l-2.65,2.81A8.29,8.29,0,0,0,666,77.11Z"/><path class="a" d="M316.09,706.19l-4.85-6.4c8.14-7.56,8.54,4.59,14.82-3.79-4.64-11.06,13.41-10.62,12-17.45.54.72,4.5-2.42,6.64.41-3-5.57,2.87-4.53,4.16-7.83-.29-2-1.86-.79-3.74-1.58l3.92-6.5c3.43-.45,6.38,1.75,4.55,4.33,15.53-11.16,87-68.2,100-84.24-5.06-1.66-7.63,4.91-14.31,1.13,1.25-6.66,6.85-4.3,5.73-9.09,8.83,6.63,10.54-6.08,21-.71l-3-5.59,4.52,1c13.3-20.74,1.92-6,18.5-19.09,8.39-8.92,6.95-19.13,14.09-21.38-.79.64-5.31-.33-4-3.62,4,3.62,3.62-8.53,8.43-5.54,1.83-2.59,9.72-8.83,2.25-12,3.74,1.58,11.37-3.33,9.58,2.62,2.38-1.87,5.28-3,5.79-5.71l-4.25,1.09c6.82-7.66,14.78-7.18,15.2-16.58l-4.76.36c4.2-4.44,7.6-8.29,14.28-4.5l-3.12,5.87c7.36-6.94,11.55-11.4,15.17-19.95l-2.36,1.88c3-12.62,40.55-54.89,41.73-68.31l-7.18-1.12,3.09-9.25c-.79.62,9.33,16.36,7.47,15.57,13.13-12.67,80.35-79.76,95.38-88.28,7.14-2.25,7,5.83,7.5,6.55,4.7-7.13-1.4-6.85,4.13-11.22,2.11-.54,2.69,3.55,2.44,4.88,1.83-2.57,5.26-3,3.65-5.16-4.23,1.07-7.75-5.22-12-7.5l7.1-5.63,2.69,3.55c1.59-1.26-4.38-12.42,3.8-16.63,12.38-8.67,23.38-20.78,35.22-30.16,1.62,2.12.33,5.41-1,8.7,1.59-1.26,3.4-3.83,6.07-3.67-5.86-1,2.57-6.57-.87-6.12.87-15.45,18.1-17.74,20.36-29.74C766,222,674.62,91.81,666.82,83.23c2.38-1.88,4.75-3.75,6.07-3.66-2.41-1.5-7.68,1.54-9,4.83l3.78,5c-3.92,6.51-3.75-1.58-8.72,3.5-3.7-3.5.4-8.7,4.33-12.94-4.23,3-10.54,3.78-8.35,9.32-5,1.71-3.78-5-9.59-2.62-2.08,3.92-2.79,11.29-8.36,12.29l-.54-.72c-12.16,4-8,17.72-19.39,21l-.3-2c-4.76.36-7.59,8.28-14.73,10.53,2.12-.55,5.85,1,3.23,4.24-7.94,2.89-9.72,8.85-16.61,9.76l-.71,7.37c-20.78,17.59-95.51,95.15-115.19,114.13l.26-1.31C443.9,291.8,380.41,349,353.19,383.08c-8.22.85-14.24,7.88-20.3,11.54,4.23-1.08,5.6,2.38,3.23,4.26-16,13.82,1.23,3.47-13.19,19.42-15.16,19.95-88.41,79.57-107.4,91.2-3.83,13.25-18.35,19.08-23.8,30.21l-.28-2C184.13,548,127.86,590.14,119,601.72l2.13-.53c-6.25,11.75-10.31,4.75-19.27,9.57,6.41,5.13,1.57,15.75-1,19l-1.08-1.41c-3.64,5.16-9.25,19.78-16.06,27.45L81,652.21c-3.09,9.25-16.25,18.54-20.45,23-11.58,8-32.72,16.85-42.6,33.76L.46,707.74,0,709.86s88.33,126,128.47,133.42l2.69,3.54,3.22-3.71c5.8-2.32,4.35-7.94,7-4.41l-6.3,5c5.22-3,3.76,1.49,3.78,4.86a16.66,16.66,0,0,1,6.59-2.86c-.29-2-1.87-.79-3.19-.88,1.29-3.29,1.75-9.33,6-10.41,4.74-3.75,5.11,5,10.63.66,29.73-22.41,59.76-42.79,86.8-68.75,1.87.78,1.07,1.42.83,2.76,7.06-9,15-15.26,21.22-23.64,3.45-.45,5.86,1,7.72,1.83C271.73,745.69,314.76,706.1,316.09,706.19Z"/><path class="a" d="M378.76,258.81c3.47,4.37,8.35,4.14,13,4.28C387.61,259,383.6,257.57,378.76,258.81Z"/><path class="a" d="M391.87,263.18l.07-.08a.86.86,0,0,1-.17,0A.9.9,0,0,1,391.87,263.18Z"/><path class="a" d="M822.08,611.79c.1-1.17.21-2.5.33-3.85A8.22,8.22,0,0,0,822.08,611.79Z"/><path class="a" d="M614.18,245l-.45-8c10.78-1.68,4.45,8.59,14.15,5.2.57-2.94,1.9-4.49,3.62-5.26a8.31,8.31,0,0,1,2.81-.64c.51,0,1,0,1.54,0h.39l.19,0,0,0,.08.16c.45.9.73,2.5.69-.53a23.44,23.44,0,0,1,.41,4.76c0-3.09.08-3.47.17-3.26s.15,1,.28.18a25.74,25.74,0,0,0,0-3.74c.25-.76.53-1.53.86-2.31a29.13,29.13,0,0,1-.58,6.4,14.15,14.15,0,0,1,.77,2.06,5.07,5.07,0,0,1,.06,2.35,7.79,7.79,0,0,1-.49,1.44c0,.08,0,.06.21-.09l.89-.82c1.3-1.33,2-2.13,2.58-2.71s.87-1,1.19-1.35c.69-.81,1.73-2,5.51-6.24,2.42-2.42,2.28-2,2.06-1.67-.12.19-.36.5-.18.37s.67-.58,1.87-1.74c-6.07,6.31-6.8,7.19-7.56,8.1s-1.54,1.85-7.61,7.41l6.79-6.14q-2.09,2-4.16,3.81c1.75-1.43,2.83-2.16,3.44-2.58s.77-.5.66-.39-1.52,1.31-2.34,2.21c.5-.18,3-1.64,5-2.55s3.36-1.35,1.67-.17c0-.06,1.06-.68,2.28-1.39a20.74,20.74,0,0,1,3.46-1.7c-2.88,1.56-1.87,1.22-.87,1s2-.36-.92,1c.34,0,.3.39,1.14.34s2.57-.44,6.46-2.2c-1.94.9-3.34,1.82-4.66,2.51a12.85,12.85,0,0,1-4.18,1.45c-.27.42-1.42,1,.25.78.72-.35,1.45-.71,2.18-1.1.49.49-.77,1.33-1.28,1.83s-.3.73,3.06.71q1.53-.48,3.06-1.05c.38.89.81,2-6.6,2.75-.73-.21-1.47-.38-2.21-.52a1.63,1.63,0,0,0,.75,1.36,19.75,19.75,0,0,0,3.51,1.62l.25-.42a9.77,9.77,0,0,1,2.57,1.14,1.43,1.43,0,0,1,.15.11c0,.17.08.33.11.5.07.34.14.68.22,1,.13.7.26,1.43.41,2.19.26,1.52.51,3.15.75,4.86,1,6.84,1.78,15,2.63,23.22,1.64,16.35,3.54,32.67,7.45,38l6.16-3.69,3.72,8.76c.19-1-17.76-6.19-15.83-6.77-.38,4.39-1.15,13.41-2.12,24.71s-2.26,24.87-3.75,38.38c-.73,6.76-1.5,13.5-2.28,19.94s-1.65,12.55-2.47,18.08-1.66,10.44-2.47,14.47a62.22,62.22,0,0,1-2.4,9.1c-4,6.06-9.07-.11-9.95-.31.95,8.2,5.45,4.27,4,10.92-1.28,1.69-4.34-1-5-2.17.24,3-2.1,5.49.48,6.1,2.57-3.39,9.29-.81,14-1.71L649,461.74l-4.34-1c-.41,1.91,11.27,6.67,7.63,14.83-4,14.08-4.92,29.89-8.18,44.15-2.59-.63-3.68-3.91-4.75-7.18-.43,1.91-.22,5-2.38,6.44,5.19-2.75,2.15,6.54,4.53,4.13,9,12.26-3,24.36,2.78,34.86,4.74,1.19,45.23,13,86,24.83s81.65,23.77,87.37,24.73c-.71,3-1.41,5.88-2.5,6.63,2.82-.31,5.08-6,4-9.33l-6-1.56c-1-7.52,3.91-1.07,4.66-8.13,5.08.45,5.08,7.07,4.62,12.83,1.43-5,5.93-9.5.79-12.49,2.88-4.45,6,1.55,9.15-3.88-.79-4.37-4.82-10.58-1.09-14.84l.87.23c7-10.69-4.76-18.83,2-28.54l1.51,1.4c3.48-3.27.72-11.21,4.86-17.45-1.31,1.76-5.2,2.86-5.18-1.27,4.38-7.23,2-13,6.77-18L838,506.9c2.54-13.36,5.91-46.88,8.76-80.45s5.1-67.2,6.35-80.78l.66,1.15c.69-10.38,1.8-23.47,3.08-37.93,1.41-16.37,3-34.3,4.51-52.28,1.26-14.46,2.48-28.89,3.62-43s1.9-27.83,2.67-40.87c.38-6.51.76-12.88,1-19s.47-12,.65-17.62c.34-11.26.5-21.5.43-30.39a95.63,95.63,0,0,0,5.89-22.61c1.15-7.49,1.84-14.74,3.13-21.53-2.81,8.58-6.33,8.93-5.65,3.52,1.93-18.79,1.07-18.66-.15-18.25s-2.79,1-2.33-16.31c-.16-4.71,0-11.39.44-19.55.11-2.05.24-4.19.36-6.4.08-1.12.15-2.25.22-3.4l.06-.87,0-.21V.07s0-.09,0-.06l-.45.07-1.83.28c-4.9.74-10,1.49-15.38,2.24-21.36,3-45.84,6-70.23,8.64-12.19,1.34-24.35,2.6-36.06,3.75l-33.56,3.38c-20.86,2-38,3.38-47.49,3.69-10.75,5.2-22,7.27-33.29,9-5.64.87-11.28,1.65-16.71,2.69-2.71.51-5.37,1.09-7.94,1.76a12.92,12.92,0,0,0-2.7.94,22.76,22.76,0,0,0-2,1.05l.88-1.85C593.3,40.1,524.4,43.3,510.82,47.88l2,.75c-11.52,6.2-11-1.87-20.94-2.92,2.42,7.84-7.34,13.91-11.23,15.09l-.1-1.78c-5.8,2.22-18.37,11.15-28.11,13.66l-.25-4.45c-7.58,5.91-23.38,6.2-29.25,7.52-13.83.15-35.86-4.46-53.17,4L356.27,68.9l-1.54,1.49s3,153.79,31.6,182.5l.25,4.43,4.66-1.25c6,1.33,7.89-4.12,8.14.3l-7.87.6c5.9.44,2.25,3.34.43,6.13a16.14,16.14,0,0,1,6.92,1.34c.89-1.85-1.09-1.7-2.11-2.52,2.85-2,6.53-6.72,10.56-5.25,5.91-.43,1.4,7,8.3,6.53,36.48-1.82,72.09-1.78,108.32-8,1.09,1.7.1,1.78-.83,2.75,10.68-3.48,20.52-4.21,30.22-7.61,3.06,1.56,4.2,4.15,5.29,5.85C556.43,252.75,613.15,244.21,614.18,245Z"/></svg>