<svg xmlns="http://www.w3.org/2000/svg" xmlns:xlink="http://www.w3.org/1999/xlink" width="671.3" height="854.93" viewBox="0 0 671.3 854.93"><defs><style>.a{fill:none;}.b{clip-path:url(#a);}.c{fill:#b42537;}</style><clipPath id="a" transform="translate(0 0)"><rect class="a" width="671.3" height="854.93"/></clipPath></defs><g class="b"><path class="c" d="M294.27,140.59,221.92,63.86,202,155.37c-40.47,0-78.82.6-117.1-.64-5.9-.19-11.52-8.85-17.26-13.59,6.43-3.74,12.74-10.45,19.3-10.7,30.61-1.15,61.28-.51,93.44-.51C188.66,90.06,196.87,50.58,206,6.86l85.29,91.46L360.64,0,429,98.67l94.14-84.51V143.21l127.91,20-94.07,88,97.21,69.37-55.91,41.06c2.27,11.1,4.17,20.37,6.07,29.65H567.31c31.42,22.89,60.2,43.85,90.34,65.82L564.3,525.57l95.15,68.11-95.47,66,88.51,50.54c-6.26,23.24-12.35,45.86-18.46,68.53,3.13,1,4.35,1.66,5.56,1.65,10.15-.13,26.78-4.16,29.27.1,8.53,14.63-7.37,18.55-16.64,24-19.62,11.5-39.65,22.3-63.51,35.62,11.5-41.08,21.76-77.69,32.68-116.67l-70.35-40c8.82,27.63,16,50.23,24.8,77.72L462.42,724.44c-10,38.57-19.44,75.12-29.83,115.29l-81.21-74.85-63.85,90L231.07,746,130.68,814c1.59-34.08,2.72-63.58,4.43-93.05,1.74-29.87,1.86-29.75-27.05-30.7-27.64-.91-55.25-2.36-82.86-3.73-2.08-.1-4.1-1.47-9.14-3.38l76.57-86.83L0,520.36l116-28.08c-7.16-38.55-14.21-76.51-22.2-119.51L198.9,423.86l40.9-108.08,78.1,83.58c21.45-30.89,41.7-60,63.65-91.63l63.09,93,59.77-85.1c7.88,4.61,15.58,9.13,23.31,13.61C567,352.05,567,352.05,607.58,320.6l-93.41-66.38,77.76-72.73L496.36,166V74.66l-72.15,64.48L360.68,47l-66.41,93.56m123.52,648.5c9.26-35.05,17.59-66.54,26.15-98.92L533.8,719l-28.92-89.86,91.85-30.4-74.5-75.93,89.71-65.57c-33.84-24.3-64.88-46.59-96.16-69l25.3-20.07-28.84-16.94L444.39,448.1,381.3,355.48l-60.48,86.69-71-76.09c-13,33.87-24.44,63.5-36.32,94.35l-83.07-39.57c5.89,33.15,11,62.08,16.22,91.24l-87,21.68,71.5,59.48L71.86,661.32l89.75,6.57v92.43l79.54-53.69L291,803.16,347.18,724l70.61,65.05" transform="translate(0 0)"/></g></svg>