<svg xmlns="http://www.w3.org/2000/svg" width="621.41" height="864.33" viewBox="0 0 621.41 864.33"><defs><style>.a{fill:#b42537;}</style></defs><path class="a" d="M480.88,171.67c-2.42-1.3-4.84-2.62-7.28-3.89C445,153,445,153,431.79,181.82c-36.33,79.23-136.43,101-201.47,43.32-9.71-8.62-13.37-10.37-22.53,1.54-22.19,28.86-67.53,34.69-98.42,15.09a76.92,76.92,0,0,1-29.06-95.7c15.33-34.84,53.4-53,89.7-42.39,11.31,3.3,17.82,5.68,22.53-11.1,18.81-66.87,79.88-96.82,131-92.1C393.42,6.92,442.17,59.74,443,125.74c.15,12,1.94,19,15.4,22.17,9.56,2.27,19.86,6.43,27,14.75,2.37,2.28,5.45,4.88,3.75,8.23S483.91,174.12,480.88,171.67Z"/><path class="a" d="M542.93,735.37c4.07-1.87,5-5.56,5.46-9.5,12.83,16.61,26.25,32.25,50,31.22,2.11,14.94-7.62,8.25-14,7.68C563.36,765.23,551.37,752.8,542.93,735.37Z"/><path class="a" d="M480.88,171.67c7.56,0,6-4.5,4.5-9,13.51,6.29,23.75,15.93,30.16,29.5-4,1.81-5,5.37-5.35,9.27Z"/><path class="a" d="M65.06,613.13c9.87-1.35,8.77-8.87,8.78-15.73,0-11.52,0-23,4.07-34.58v54.74C73.48,616.51,68.37,617.44,65.06,613.13Z"/><path class="a" d="M584.43,764.77c5.55-1,12.72,1.07,14-7.68,3.79,3.09,3.83,7.45.62,9.87C594.15,770.64,589,767.68,584.43,764.77Z"/><path class="a" d="M621.08,544.13c-3-36-27.37-64.43-64.07-73.05-7.94-1.86-15.54-1.24-13.37-12.61,1.71-9-5.64-20.74,10.62-24.68,52.23-12.67,59.61-79.35,22.44-108.87-10.43-8.29-17.37-23.65-2.67-38.58,13.23-13.44,15.61-30.5,8.27-48.38-6.59-16-18.28-28-35.43-28-15.3,0-24.11-6.15-31.33-17.77-7.88-.45-7.94,3.65-5.35,9.27,6.31,8.9,1.52,14-5,20.79-18.14,19-19.11,47.84-.7,66,14.73,14.58,7.82,27.05-1.83,36.81-11.49,11.61-19.38,24.39-23.75,40-40.92-25.63-68.4-12.79-84.54,24.8-1.73-1.22-3.8-2.11-5-3.67a23,23,0,0,1-3.86-7.4c-8.92-32-31-46.59-63.11-47.35-6.8-.16-11.7-3.66-17.24-6.42C268,306.44,228.05,314,201.37,345.6c-6.49,7.7-11,10.06-21.87,7.72-48.65-10.47-92.87,13.19-103.26,57.83-4.26,18.27-12.57,25.68-27.66,33.1C15.77,460.38-3.5,497.83.53,532.38c4.91,42.17,27.05,69.87,64.53,80.75,7.49,3.74,10.68,0,10.61-7,0-2.79,0-5.58.12-8.37a76,76,0,0,0,2.12,19.76c1.41,8.51-6.16,11.88-10,17.3-33.55,47-40.24,97.35-15.25,149.61,24.73,51.72,68,79,124.74,79.84,57.45.88,101.32-25.28,128.39-77.13,12.15-23.29,53.58-34.31,76.38-20C405.71,782,430.46,778,445.61,754.64c5.4-8.31,10.27-10.71,19.52-11.29,18.95-1.19,33.46-12.31,32.39-31.27-1.64-28.88,23.39-40.77,32.12-62.69,2,15.53,2.18,30.2,1.93,44.86-.25,14.88,2,29,11.36,41.12,8,.37,8-3.81,5.46-9.5-6-18.28-2.87-37.32-4.74-55.9-2.31-23,7.5-35.75,27.9-44.53C606.16,610.55,624.08,579.81,621.08,544.13ZM74.57,567.05c-.2-.92-.67-1.21-1.58-.84-2.59,1.06,1.56-2.5,2.29.24a96,96,0,0,1,.84,15.34A75,75,0,0,0,74.57,567.05Zm456.56-97.52c-3.21,5.08-9.49.9-13.22,4.39-30.69,6-48.8,26.66-56.21,54.93-8.05,30.69-1.56,59.57,23,82.09,7.61,7,14.09,14.94,20.94,22.4,11,12,6.92,20.26.08,30.52-7,10.47-12.24,21.08-27.77,8.56-12.1-9.74-27.85-6.92-38.6,2.93-10.43,9.56-20.23,13-34.33,12.91a40.65,40.65,0,0,0-40.59,45.59c2,15.84-5.47,16.68-16.28,17.78-9.66,1-19.28,2.33-28.92,3.53q-5.25.15-1.43-3.45C340.3,665.08,277,590.13,170.66,578.43c8.57-17,15.13-34.44,14.19-53.71-.23-4.64,1.77-8,6.22-9.85,1.89-.78,4-1.58,5.38-3,23.14-24.1,49.65-38.41,84.3-29.66a2.9,2.9,0,0,0,2.06-.2c32.29-20.95,76.38-22.59,98.29-60.76,5.12-8.91,13.12-8.83,20.64-1.69,19.46,13,38.8,26.71,63.27,11.28a28.39,28.39,0,0,0,12.88-11.95,12.61,12.61,0,0,1,3.94-3.13c18.38-2.73,27.25,18.68,44.92,17.75a4.88,4.88,0,0,1,4.47,3.21Z"/><path class="a" d="M469,433.85c-26.44,17.07-46.32,12.84-67.26-14.29,26.35-8.71,53.4-2.37,80.09-3.8a9.54,9.54,0,0,1-1.37,3.9C478.29,425.73,472,428.45,469,433.85Z"/><path class="a" d="M517.91,473.92c3.32-4.75,8.84-2.85,13.22-4.39V587.34h-4c0-31.18.17-62.35-.12-93.52C527,486.15,530.52,476.11,517.91,473.92Z"/><path class="a" d="M530.23,265.24V368.92l-2.1,0v-104Z"/><path class="a" d="M329,402H297.26c0-.7,0-1.4-.07-2.1H329C329,400.63,329,401.33,329,402Z"/><path class="a" d="M391.91,402H360.09L360,400h32Z"/><path class="a" d="M531.22,436.72l-4.47-3.21V403.16l4.47-.06Z"/><path class="a" d="M263.09,765.14h23.7L287,767H263.88Z"/><path class="a" d="M328.8,414.08c11.14-3.36,16.38-3.66,25.5,0Z"/><path class="a" d="M317.84,751.71a3.4,3.4,0,0,1,1.43,3.45H294.89C303.18,749.22,310.82,752.8,317.84,751.71Z"/><path class="a" d="M287.55,417.16c-4.51,2.45-8.69,4-12.48.21C279.44,413.83,283.69,416.22,287.55,417.16Z"/><path class="a" d="M264.08,133.8H416.63v2.68H263.29C263.56,135.59,263.82,134.7,264.08,133.8Z"/><path class="a" d="M259.2,152.77c-4.36,3-8.62,2.6-14.36.18C250.32,149.83,254.55,149.63,259.2,152.77Z"/><path class="a" d="M469,433.85c.81-7.17,6-10.8,11.46-14.19C480.85,427.8,474.74,430.67,469,433.85Z"/></svg>