<svg xmlns="http://www.w3.org/2000/svg" width="284.59" height="356.03" viewBox="0 0 284.59 356.03"><defs><style>.a{fill:#b42537;}</style></defs><path class="a" d="M281.74,331.42c-2.73-1-5.3-.89-7.35,1.45-1.54,1.76-2.65,4.09-4.51,5.34-4.11,2.77-7.93,1.18-10.72-2.29-3-3.74-1.67-6.55,2.39-9,9.33-5.55,11-14.43,8.06-23.83s-10.29-13.6-20.37-12.78c-6,.49-11-1.33-11.59-8.29-.58-6.73,4-8.13,9.61-9,14.92-2.39,21.68-9.54,21.58-22-.11-12.59-6.88-19.38-22.1-21.27-6.3-.78-9.52-3.71-8.49-9.82,1-5.88,5.94-6.19,10.95-6.67,11.74-1.11,20.32-10.3,20.51-21.28s-8.34-20.15-20.1-21.45c-3.33-.37-6.48-.77-10.48-3.9,11.51-1.86,14.42-11.65,20.64-18.28,6.37-6.79,10-13.67,7.24-22.62-2.88-9.36-9.43-14.22-19.6-14.39-6.3-.1-11.57-3.1-11.51-10.18.06-6.43,4.72-9.06,10.81-9.84,9-1.14,14.87-6.59,16.87-15.21,1.85-8-.09-15.63-6.77-21.09-6.88-5.62-14.64-6.55-22.48-2.15-4.5,2.52-8.5,2.59-11.82-1.29-3.62-4.23-2.94-8.39.82-12.62,6-6.72,5.3-14.53,1.27-21.65-4.36-7.71-11.84-11-20.6-10s-15.11,6.27-16.93,15c-1.23,5.9-3.79,9.87-9.65,9.54-6.43-.36-8.56-5.16-9-11.34C167.34,7.37,160,.2,148.08,0c-11.67-.19-19.41,6.87-21,20-.74,6.24-1.91,11.81-9.35,12.12-6.91.29-8.63-5.11-10-10.64C104.27,8.09,93.94,1.43,82.52,5,69.82,9,64.21,20.07,69.24,32.79c2.05,5.19,2.18,9.28-2.49,12.43S58.12,47,54.18,43.05C48,36.88,40.69,37.87,33.65,41.59,25.63,45.82,22,53.3,22.7,61.74c.59,7.64,4.91,14.13,12.65,16.94,3,1.08,7,2.1,8.78-2.16,1.51-3.61.15-6.49-3.48-8.34-6.28-3.18-8.38-8-4-14,4.11-5.61,8.36-3.26,12.92.3,7.85,6.14,16.21,5.89,24.27.16,7.9-5.61,10.7-14.43,7-24.06-2.36-6.2-3.08-11.67,4.24-14s10.32,2.59,12,8.85c3.21,12.31,11.5,19.54,21.42,18.83,11.5-.82,17.91-7.83,19.7-21.59.75-5.8,2.47-10.78,9.6-10.71,6.41.07,8.28,3.87,8.86,9.87.91,9.41,4.07,17.86,14.61,20.75,13,3.56,22.63-1.77,27.06-15.84,2-6.3,4.81-9.7,11.45-7s6.83,7.36,3.52,13.12C207,43.72,206.92,53,213.69,59.7c7.36,7.32,16,9.47,25.67,4,5.47-3.11,10.32-1.68,12.13,4.29,1.75,5.74.31,10.87-7.06,11.89a50.4,50.4,0,0,0-4.9,1.27c-9.42,2.34-14.07,8.75-15,18-1.26,12.76,5.7,21.1,19.69,23.33,7.26,1.16,13.68,2.47,11,12.45-8.81-4.32-8.33-4-14.51,5-2.08,3-6.17,7-11.77,2.9-17.23-12.52-31-6.93-34.36,13.65-.89,5.39-2.86,10.28-9.27,9.92-6-.34-8.22-4.63-8.76-10.42-1.26-13.4-7.73-20.24-18.91-20.64-12.16-.43-19.84,6.7-21.38,20.74-.54,4.93-1.08,8.5-7.12,8.82s-7.15-3.49-8.48-8c-4.14-13.9-11.89-19.32-24-17.16-11.86,2.11-16.91,10.07-15.8,25,.3,4.08,1.12,8.43-3.93,10.28s-7.67-.24-10.54-4.77C59.18,159,46.25,156.9,36.67,164.62c-9.21,7.42-9.87,19.82-1.13,29.28,3.38,3.65,5.33,7.13,2.41,11.6-2.81,4.29-6.52,4.49-11.46,2.88-11-3.58-19.88,0-24.2,8.76-6.16,12.53.46,24.58,15.48,27.52,5,1,9.57,2.33,10.05,8.08s-3.54,8-8.5,9.63C6.82,266.5,1.79,277.08,6.5,288.57c4.35,10.62,16.19,14,28.21,7.76,4.37-2.26,8.29-2.87,12,.78s3,7.67.45,11.92c-7.52,12.44-5.79,22.58,4.63,28.71s21.13,1.95,27.76-10.69c3.7-7.06,10.59-8.77,15.51-3.92,3.72,3.66,2.16,8.21,2.27,12.49.3,11.88,7.93,20,19.29,20.39,11.69.44,20.32-6.59,21.46-18.11.46-4.63.51-9.37,6.1-10.12,6.15-.81,6.28,5,7.83,8.78,4.23,10.47,11.39,15.07,21.86,13.79,13.19-1.62,19.91-12.08,16.77-26.84-1-4.86-2.4-9.52,3-12.32,5.08-2.64,8.42-.08,12,4,11.68,13.41,29.19,9.4,33.87-8.06,1.75-6.56,5.66-5.2,9.75-5.58,5.25-.49,8.55,2.11,9.8,6.84s-1.28,7.64-5.56,9.34c-9.1,3.6-8.57,11.37-7.13,18.64,1.69,8.53,12.07,16,20.41,15,8.08-1,14.78-4.76,17.36-13.18C284.81,335.89,285.26,332.72,281.74,331.42Zm-64.27-60c-4.39,9.71-1.67,18.09,6.33,24.3,5.09,3.95,6.52,8.05,2.26,12.52s-8.62,3-12.77-1.75c-7.68-8.71-16.2-10.36-25.07-5.79s-12.52,12.79-9.29,24.1c1.9,6.64,1.5,11.76-5.44,13.76-7.23,2.08-9.72-2.8-11.47-9.14-2.57-9.28-9.25-13.81-19-13-9.36.79-14.54,6.18-15.91,15.38-.3,2-.6,4-1,6-1,5.57-5.07,6.87-9.79,6.41s-7.3-3.36-7-8.27c.48-7.59,0-15-5.48-20.89-10-10.74-28-7.6-34.56,6.25-2.37,5-4.46,9.85-10.88,6.39-6-3.22-4.56-7.56-1.21-12.61,5.88-8.88,4.87-19-1.67-26.09s-15.94-8.67-25.81-3.27c-5.3,2.9-9.7,3.8-12.42-2.46-2.94-6.78,2.19-8.73,7.21-10.52,11-3.93,15.57-10.59,14.68-21.18s-6.1-15.77-18.39-17.91c-5.82-1-10.08-3.36-8.39-9.87,1.62-6.23,6.75-5.87,11.5-4,10.05,4,17.93.69,23.87-7.38,5.46-7.42,4.23-18.14-3-25.83-4.43-4.67-5.16-8.9-.11-12.57s8.94-1.83,12.39,3.62c6,9.49,15.07,12.21,24.33,8.41,8.86-3.64,13-12,10.64-23.38-1.33-6.45,1.5-10.16,6.77-11.6,6.17-1.68,9.54,2.5,10.42,8.11,1.56,9.84,6.82,16.09,16.64,17.5,12.29,1.77,21.09-5.78,22.16-19,.46-5.8,2.19-10.51,8.24-10.75s8,3.86,8.54,10c1.24,13.09,7.94,20.43,19.11,21.28,8.64.66,15.89-2.89,19.62-11.28,1.33-3,1.7-6.45,2.25-9.74.75-4.53,1.54-8.63,7.49-9,5.57-.39,7.89,2.44,9.1,7.31.79,3.22,2.21,6.28,3.13,9.48,2.81,9.73,8.73,15.8,19.2,16.56,6.53.47,12.62,2,12.75,9.94.13,7.69-4.93,9.64-12.1,10.25-8.89.75-16.1,5.18-18.18,14.91s.56,17.62,9.46,22.45c4.91,2.67,6.58,9,13,10.1,2.93.51,2.49,4.44,2.18,7.12-.39,3.37-2.85,4.31-5.83,4.25-2.36,0-4.72-.22-4.93-.23C229,258.71,221.63,262.17,217.47,271.38Z"/></svg>