<svg xmlns="http://www.w3.org/2000/svg" xmlns:xlink="http://www.w3.org/1999/xlink" width="207.88" height="200.56" viewBox="0 0 207.88 200.56"><defs><style>.a{fill:none;}.b{fill:#1d1d1b;}.c{clip-path:url(#a);}</style><clipPath id="a" transform="translate(0 0)"><rect class="a" width="223.75" height="200.56"/></clipPath></defs><polygon class="b" points="12.53 0 0 41.66 12.53 51.18 12.53 200.56 51.91 200.56 51.91 0 12.53 0"/><g class="c"><path class="b" d="M163,136.17A21.85,21.85,0,0,1,154.55,151a21.21,21.21,0,0,1-12.13,4,19.67,19.67,0,0,1-8.42-3.36c-8.75-6.21-9.13-19.79-9.84-29.41-.86-11.49-.22-23,.16-34.49.41-12.55-1.86-31,11-38.6a20.86,20.86,0,0,1,10.45-2.69,18.27,18.27,0,0,1,9.1,3,19.57,19.57,0,0,1,7,9.35c4.28,10.7,3.33,24.38,3.2,37.92-.18,18.17-.52,25.64-2.11,39.44M182,13.68c-11-8.27-21.89-10.22-27.3-11.19a62.07,62.07,0,0,0-10.59-1,57.79,57.79,0,0,0-33.67,10.35C80.25,32.2,80.29,75.17,80.32,98.49c0,19.93.06,66.88,32,89.53,4.15,2.94,15.52,10.66,31.8,11,18.58.44,31.89-9,36.31-12.38a64.55,64.55,0,0,0,14-14c7.72-10.63,12.17-23.87,12.8-60.83.58-33.55,5.18-75.2-25.26-98.14" transform="translate(0 0)"/></g></svg>