<svg xmlns="http://www.w3.org/2000/svg" xmlns:xlink="http://www.w3.org/1999/xlink" width="132.79" height="199.59" viewBox="0 0 132.79 199.59"><defs><style>.a{fill:none;}.b{clip-path:url(#a);}.c{fill:#1d1d1b;}</style><clipPath id="a" transform="translate(0 0)"><rect class="a" width="132.79" height="199.6"/></clipPath></defs><g class="b"><path class="c" d="M9,64h32.5C45,45.38,59.59,33.65,72.83,34.88c8.24.76,17,6.62,20.14,15.06,3.53,9.33-.75,19-5.57,27.52-11.93,21.12-31.56,36-48.54,52.75C20.08,148.76,7.2,170.71.77,196.4c-.27,1.07-.53,2.13-.77,3.19H128.86v-37H57.15c7.84-7,18.84-17.25,31.37-30.26,20.16-20.92,30.36-31.65,36-44.54,2.71-6.21,16.38-37.63,1.4-61.69C108.69-1.53,59.75-9.65,31.37,13.59,10.3,30.84,9.1,58.4,9,64" transform="translate(0 0)"/></g></svg>