<svg xmlns="http://www.w3.org/2000/svg" xmlns:xlink="http://www.w3.org/1999/xlink" width="109.07" height="200.56" viewBox="0 0 109.07 200.56"><defs><style>.a{fill:none;}.b{clip-path:url(#a);}.c{fill:#1d1d1b;}</style><clipPath id="a" transform="translate(0 0)"><rect class="a" width="109.07" height="200.56"/></clipPath></defs><g class="b"><path class="c" d="M15.4,0h93.67C96.63,30.09,88,56,82.07,75.44c-22.89,75.35-15.89,91.39-8.75,98.93,6.34,6.71,15,9,21.6,9.92a11.08,11.08,0,0,1-11.64,16.12H0v-5.92a58.11,58.11,0,0,0,19.88-12.35c9.22-8.85,12.91-18.64,18.27-33.85,7.78-22.11,11.68-33.16,14.5-43a657.41,657.41,0,0,1,22.57-65L38.15,41.37c-2.89-.37-9.46-.89-11.82,2.69-.77,1.15-.78,2.27-1,5.12-.19,2.68-.53,6.63-1.17,11.53a13.09,13.09,0,0,1-6.45,7.52c-6.4,3.12-12.6-.88-12.89-1.07Q5.37,36.8,5.91,6.45Z" transform="translate(0 0)"/></g></svg>