<?xml version="1.0" encoding="utf-8"?>
<!-- Generator: Adobe Illustrator 24.2.1, SVG Export Plug-In . SVG Version: 6.00 Build 0)  -->
<svg version="1.1" id="Camada_1" xmlns="http://www.w3.org/2000/svg" xmlns:xlink="http://www.w3.org/1999/xlink" x="0px" y="0px"
	 viewBox="0 0 67.6 200.6" style="enable-background:new 0 0 67.6 200.6;" xml:space="preserve">
<path d="M62.2,200.6c4,0,5.4-1.6,5.4-5.6c-0.1-8.1-0.1-8.2-8-8.3h-7.5v-4.4c0-15.7,0-31.4,0.2-47.1C52.6,93.1,52.9,51,53.2,9
	c0-1.9-0.2-4.6-1.5-5.7c-4.9-4.4-10.9-3.5-16.8-2.5c-4.6,0.8-5,4.5-5.7,8c-2.8,13.4-8.9,24.3-21.6,30.7c-2,1.2-3.8,2.8-4.9,4.9
	c-2.7,4.4,0.4,10.2,5.6,10.7c1.3,0.2,2.6,0.4,3.9,0.5c3.2,0,3.8,1.7,3.8,4.5c-0.2,21.2-0.4,42.4-0.5,63.6c-0.1,20.4,0,41.9,0,63.1H8
	c-7.9,0-7.9,0.2-8,8.3c0,4,1.4,5.5,5.4,5.5"/>
</svg>
