<svg xmlns="http://www.w3.org/2000/svg" xmlns:xlink="http://www.w3.org/1999/xlink" width="242.18" height="200.57" viewBox="0 0 242.18 200.57"><defs><style>.a{fill:none;}.b{clip-path:url(#a);}</style><clipPath id="a"><rect class="a" width="242.18" height="200.56"/></clipPath></defs><g class="b"><path d="M0,57.11V89a55.4,55.4,0,0,0,26.1-6.8A56.43,56.43,0,0,0,46.74,62.65V200.56H83.79V0H51.37c-2.23,6.25-7.7,29.24-20.21,40.51A73.3,73.3,0,0,1,0,57.11"/><path d="M173.13,164c10.51-14,19.5-25,25.68-32.4,19.46-23.24,27.56-30.23,32.85-45a77.23,77.23,0,0,0,3.79-33.72c-3-31-29.84-54.3-60.22-52.78-30.91,1.55-55.55,28.34-54.73,60l34.1,3.83c-.16-.83-2.68-15.22,7.47-24.45a25.09,25.09,0,0,1,17-6.2c.53,0,9.37.23,15.44,5.47,8.92,7.71,10.41,25.06,1.41,41.35a550.63,550.63,0,0,1-36.21,44.28c-18.83,20.68-31.56,31.38-37,51.94a74.22,74.22,0,0,0-2.19,24.25H242.18V162.82Z"/></g></svg>