<svg xmlns="http://www.w3.org/2000/svg" xmlns:xlink="http://www.w3.org/1999/xlink" width="200.36" height="200.56" viewBox="0 0 200.36 200.56"><defs><style>.a{fill:none;}.b{clip-path:url(#a);}</style><clipPath id="a"><rect class="a" width="200.37" height="200.56"/></clipPath></defs><polygon points="27.9 0 0 40.73 5.5 48.7 21.56 38.96 20.71 177.98 3.81 177.98 3.81 200.56 60.02 200.56 60.02 177.98 45.65 177.98 45.65 0 27.9 0"/><g class="b"><path d="M109.48,5.5,96,57.49l10.1-18.18,53.69-.42-27.06,44v11c6.48-.36,18.38.13,27.9,8,17.09,14.18,13.73,41.62,6.76,57.07-2.59,5.75-7.21,16-18.59,21.14-16.07,7.24-32.19-1.77-34.24-3,8.55-5.1,12.36-14.65,9.72-22.41-2.37-6.94-10.06-12.86-16.91-11.41-5.71,1.21-8.62,7.06-10.15,10.15-4.69,9.45-2.3,19-1.27,22.4a45.08,45.08,0,0,0,19.45,20.29c19.77,10.44,43,1,57.52-14,18.91-19.56,26.54-51.81,16.43-77.39-9.12-23.06-28.72-32.84-33.37-35L200.36,5.5Z"/></g></svg>