<svg xmlns="http://www.w3.org/2000/svg" xmlns:xlink="http://www.w3.org/1999/xlink" width="120.43" height="394.87" viewBox="0 0 120.43 394.87"><defs><style>.a{fill:none;}.b{clip-path:url(#a);}.c{fill:#b2b2b2;}</style><clipPath id="a"><rect class="a" width="120.44" height="394.89"/></clipPath></defs><g class="b"><path class="c" d="M0,122.93A242.47,242.47,0,0,0,31.19,71.06,243.26,243.26,0,0,0,50.37,0h54.91c.12,0-1.77,143-2,156-.85,52.25-1.77,104.5-2.42,156.76q-.24,20-.43,40c-.07,6.75-.55,13.66-.17,20.4.22,4,.93,3.17,4.64,4.08a28.53,28.53,0,0,1,13.17,6.91c7.57,7.56-5,10.7-10.81,10.7H19.87a56.18,56.18,0,0,1-12-1c-2.35-.53-5.3-1.31-6.82-3.35-1.83-2.47.16-5.6,2.05-7.37,1.43-1.33,16.8-7.8,16.8-8.05V122.93Z"/></g></svg>