<svg xmlns="http://www.w3.org/2000/svg" width="121.14" height="199.59" viewBox="0 0 121.14 199.59"><path d="M45.54,61.57A28.76,28.76,0,0,1,24,59.1,28.55,28.55,0,0,1,11.12,43.39,51.59,51.59,0,0,1,27.68,12.62C43.47-1.33,62.27-.13,65.66.15c4.18.28,25.69,2.13,40.94,20.3A57.61,57.61,0,0,1,119.49,50.8a48.33,48.33,0,0,1-5.12,29.65,47,47,0,0,1-12.71,14.83c2.92,2.86,21.74,22,19.26,48.75s-25,50-55.62,55.38c-5.57.43-23.17,1.07-39.71-10.59C.52,171.14,0,140.77,0,137.64H38.48A187.26,187.26,0,0,0,42,162.7c2.71,12.86,5,16.71,8.47,19.06a17.23,17.23,0,0,0,10.94,2.47A18.21,18.21,0,0,0,71,181.59c9.48-5.93,8.86-18.85,8.83-19.42V116.64a16.69,16.69,0,0,0-6-10.77,15.86,15.86,0,0,0-7.41-3.18V90.34a16,16,0,0,0,8.83-4.41,16.22,16.22,0,0,0,4.59-11V34.56c.6-9.65-6-17.58-13.49-18.62C57.54,14.74,47.66,23,48,34.56q-1.24,13.52-2.47,27"/></svg>