<svg xmlns="http://www.w3.org/2000/svg" xmlns:xlink="http://www.w3.org/1999/xlink" width="101.06" height="200.56" viewBox="0 0 101.06 200.56"><defs><style>.a{fill:none;}.b{clip-path:url(#a);}.c{fill:#1d1d1b;}</style><clipPath id="a" transform="translate(0 0)"><rect class="a" width="101.06" height="200.56"/></clipPath></defs><g class="b"><path class="c" d="M44.87,106.52H16.78L44.87,26.14ZM101.06,153V94.23h-8a12.22,12.22,0,0,1-13.85,13.85V0H46.43L0,121.74v19.9H43.31c-.51,0-.47,17.82-.44,19.32.07,4.49.35,9,.4,13.45,0,3.71-.33,7.69-2.65,10.74-3.47,4.55-9.44,5.72-13.31,6v9.36h67.5V190.8c-2.87-.29-7.34-1.25-10.62-4.67-3.51-3.69-3.93-9.22-4.21-14-.33-5.63,0-11.27,0-16.9,0-1.12-.23-14.29,0-14.32a10.41,10.41,0,0,1,7.73,2.37C92,147,91,152.69,90.91,153Z" transform="translate(0 0)"/></g></svg>