<svg xmlns="http://www.w3.org/2000/svg" xmlns:xlink="http://www.w3.org/1999/xlink" width="132.99" height="200.56" viewBox="0 0 132.99 200.56"><defs><style>.a{fill:none;}.b{clip-path:url(#a);}.c{fill:#1d1d1b;}</style><clipPath id="a" transform="translate(0 0)"><rect class="a" width="132.99" height="200.56"/></clipPath></defs><g class="b"><path class="c" d="M108.26,0H22.14L8.2,102.48l24.19,3.3c11.35-14.71,30.29-20.73,47-15.23,19.24,6.33,32.44,26.94,28,48.29a41.92,41.92,0,0,1-44.7,33.06c-17.68-1.73-32.7-15.19-36.91-33.47H0c3.38,31.07,25.82,56,54.13,61.15,34.82,6.37,66-19.41,75.45-49.17,6.91-21.79,4.65-53.63-19.27-72.73C90.8,62.1,63,59.91,39.78,72.31q-2.67-1.55-5.33-3.1l7-38.63h66.84Z" transform="translate(0 0)"/></g></svg>