<svg xmlns="http://www.w3.org/2000/svg" width="97.04" height="200.55" viewBox="0 0 97.04 200.55"><path d="M48.45,190.44c-4.15-.28-7.76-5.82-7.53-12.87-.58-22.2-.87-44.32-1.45-66.53-.79-5.77,3.74-10.46,8.29-10.35,4.21.1,8.28,4.32,7.94,9.66q.87,34.71,1.72,69.38c-.07,6.55-5.05,11-9,10.71m46.72-68.35c-1.76-7.64-7.29-31.72-25.29-36.58-13.47-3.64-26.17,5.57-29.25,7.93l-2.07-64.9c-.08-.45-1.5-9.61,5.18-15.19a15.6,15.6,0,0,1,10-3.45A14.61,14.61,0,0,1,62,12.16C67.68,16,70.13,24.31,67.87,33a16.74,16.74,0,0,0-10,7.94,16.13,16.13,0,0,0-.34,14.5c3.55,7.33,12.52,10.43,19,9C85.8,62.35,93.26,50.05,90,35.79,86.47,20.67,77.27,7.47,62.18,2A34,34,0,0,0,45.77.34,47.86,47.86,0,0,0,27.14,7.49C12.45,16.91,7.58,31.92,4.21,42.3A87.34,87.34,0,0,0,.11,64.49c-.37,6.92.28,13.86.41,20.78.14,7.55,0,15.11,0,22.67,0,10.11-.3,20.27,0,30.37C1,152.45,5.24,167.12,13.4,178.72c11,15.62,30.67,26.05,49.81,20.16,21.4-6.59,31.06-29.67,33.3-50.25a79.72,79.72,0,0,0-1.37-26.54"/></svg>