<svg xmlns="http://www.w3.org/2000/svg" xmlns:xlink="http://www.w3.org/1999/xlink" width="97.02" height="200.56" viewBox="0 0 97.02 200.56"><defs><style>.a{fill:none;}.b{clip-path:url(#a);}.c{fill:#1d1d1b;}</style><clipPath id="a" transform="translate(0 0)"><rect class="a" width="97.03" height="200.56"/></clipPath></defs><g class="b"><path class="c" d="M48.45,190.45c-4.15-.28-7.76-5.82-7.53-12.87-.58-22.2-.87-44.32-1.45-66.53-.79-5.77,3.74-10.46,8.29-10.35,4.21.1,8.28,4.32,7.94,9.66q.86,34.7,1.72,69.38c-.07,6.55-5.05,11-9,10.71M95.14,122.1c-1.76-7.64-7.29-31.72-25.29-36.58-13.47-3.64-26.17,5.57-29.25,7.93l-2.07-64.9c-.08-.45-1.5-9.61,5.18-15.19a15.61,15.61,0,0,1,10-3.45A14.57,14.57,0,0,1,62,12.17C67.68,16,70.13,24.32,67.87,33a16.71,16.71,0,0,0-10,7.94,16.13,16.13,0,0,0-.34,14.5c3.55,7.33,12.52,10.43,19,9C85.8,62.36,93.26,50.06,90,35.8,86.47,20.68,77.27,7.48,62.18,2.05A33.93,33.93,0,0,0,45.77.35,47.7,47.7,0,0,0,27.14,7.5C12.45,16.92,7.58,31.93,4.21,42.31A87.26,87.26,0,0,0,.11,64.5c-.37,6.92.28,13.86.41,20.78.14,7.55,0,15.11,0,22.67,0,10.11-.3,20.27,0,30.37C1,152.46,5.24,167.13,13.4,178.73c11,15.62,30.67,26.05,49.81,20.16,21.4-6.59,31.06-29.67,33.3-50.25a80,80,0,0,0-1.37-26.54" transform="translate(0 0)"/></g></svg>