<svg xmlns="http://www.w3.org/2000/svg" width="109.12" height="200.54" viewBox="0 0 109.12 200.54"><path d="M66.81,63.18c-.52,7.21-.4,24.6-12.1,22.36a8,8,0,0,1-5.1-2.89c-5.22-7.8-3.1-23.73-2.71-32.48.12-2.65.39-10.22.85-17.59.09-1.44.23-2.87.45-4.29.56-3.57,1.49-7.65,4.74-9.66a9.19,9.19,0,0,1,9.29.07c3.25,2.06,4,6.15,4.65,13.67a177.11,177.11,0,0,1-.07,30.81M64.6,156.7c-.52,8.26-.4,28.17-12.1,25.61A10.15,10.15,0,0,1,47.4,179c-3.93-4.46-3.19-10-3.26-15.77-.19-16.7.37-27.8.75-41.69.3-8.6,6.55-21.71,15.21-15.11,3.94,3,4.31,9.43,4.57,15a324.74,324.74,0,0,1-.07,35.3m36.53-44A46.41,46.41,0,0,0,83.27,97.65a3.67,3.67,0,0,1-1.46-.77,3,3,0,0,1-1.12-2A3.31,3.31,0,0,1,82,92.44a4.62,4.62,0,0,1,1.26-.84c2.17-1,7.89-5.85,8.61-6.45,2.83-2.4,13.93-15.33,14.51-34.41.14-4.79.38-22.28-13.24-36.32C78.14-1.06,58.18-.11,55.21.08,51.5,0,32.9.23,18.68,14.73S4.8,47.7,4.93,54.4c.12,6.5.43,16,6.91,25.33A40.14,40.14,0,0,0,29.27,93.64a1.73,1.73,0,1,1,0,3.46h0a53.09,53.09,0,0,0-20.2,17.23C-.95,128.82-.21,144,.2,152.53c.45,9.3,1.09,22.27,10.53,32.34,5,5.34,10.48,7.74,16,10.12a66.7,66.7,0,0,0,29.59,5.49c7-.35,22.29-1.1,35.13-12.42,14.44-12.73,16.19-29.89,17.06-38.39.8-7.88,2.35-23-7.33-37"/></svg>