<svg xmlns="http://www.w3.org/2000/svg" xmlns:xlink="http://www.w3.org/1999/xlink" width="128" height="200.56" viewBox="0 0 128 200.56"><defs><style>.a{fill:none;}.b{clip-path:url(#a);}.c{fill:#1d1d1b;}</style><clipPath id="a" transform="translate(0 0)"><rect class="a" width="128" height="200.56"/></clipPath></defs><g class="b"><path class="c" d="M77.69,93.78c-5.24,10.25-19.32,12.35-27.86,5s-8.91-20.4-9.43-30.68c-.69-13.83-2.07-33.25,9.11-43.71,6.91-6.46,17.18-5.42,23.73.91,9,8.7,8.27,22.74,8.36,34.22s1.47,23.82-3.91,34.31m49.06-13.09c-2.47-19.37-6.64-52-31.31-69.51C90.24,7.48,80.05,1.56,63.73,0,60.24-.1,32.19-.6,13.55,22-1.79,40.55-.21,62,.31,67.63c.57,6.4,3,33.69,26.83,47,24.5,13.74,50.25.72,52.27-.35.6,9,1.24,19.87,1.74,32.41.31,7.88.45,13.13-3.14,17.42-4.14,5-10.87,5.78-14.28,5.93a20.23,20.23,0,0,1-9.18-2.47c-8.8-4.92-13.25-16.87-11.73-30.29l-40.42-.7c-.33,2.87-2.91,29.57,17.77,48.79,18,16.76,40.27,15.28,43.9,15a68,68,0,0,0,20.35-7.19c39.89-21.87,43.06-77.71,43.38-85.19a153.61,153.61,0,0,0-1-27.32" transform="translate(0 0)"/></g></svg>