<svg xmlns="http://www.w3.org/2000/svg" width="128.01" height="200.55" viewBox="0 0 128.01 200.55"><path d="M77.69,93.8c-5.24,10.25-19.32,12.35-27.86,5S40.92,78.4,40.4,68.12c-.69-13.83-2.07-33.25,9.11-43.71C56.42,18,66.69,19,73.24,25.32c9,8.7,8.27,22.74,8.36,34.22s1.47,23.82-3.91,34.31m49.06-13.09c-2.47-19.37-6.64-52-31.31-69.51C90.24,7.5,80.05,1.58,63.73,0c-3.49-.1-31.54-.6-50.18,22C-1.79,40.57-.21,62,.31,67.65c.57,6.4,3,33.69,26.83,47,24.5,13.74,50.25.72,52.27-.35.6,9,1.24,19.87,1.74,32.41.31,7.88.45,13.13-3.14,17.42-4.14,5-10.87,5.78-14.28,5.93a20.22,20.22,0,0,1-9.18-2.47c-8.8-4.92-13.25-16.87-11.73-30.29L2.4,136.6c-.33,2.87-2.91,29.57,17.77,48.79,18,16.76,40.27,15.28,43.9,15a68.24,68.24,0,0,0,20.35-7.19c39.89-21.87,43.06-77.71,43.38-85.19a154,154,0,0,0-1-27.32"/></svg>